<svg version="1.1" id="Layer_1" xmlns="http://www.w3.org/2000/svg" xmlns:xlink="http://www.w3.org/1999/xlink" x="0px" y="0px"
	 width="100%" viewBox="0 0 512 512" enable-background="new 0 0 512 512" xml:space="preserve">
<path fill="#000000" opacity="1.000000" stroke="none" 
	d="
M513.000000,201.000000 
	C513.000000,305.307983 513.000000,409.115967 513.000000,512.961975 
	C342.400330,512.961975 171.800674,512.961975 1.100500,512.961975 
	C1.100500,342.442047 1.100500,171.884003 1.100500,1.162985 
	C171.666534,1.162985 342.333252,1.162985 513.000000,1.162985 
	C513.000000,67.532623 513.000000,134.016312 513.000000,201.000000 
M120.200706,390.488647 
	C134.151810,376.620270 148.102921,362.751923 162.753937,349.029755 
	C171.295410,352.908936 179.566833,357.630005 188.439682,360.476074 
	C202.875702,365.106598 217.871628,366.406860 232.989258,363.937866 
	C236.013367,363.444000 238.935745,362.318634 238.962555,358.486420 
	C239.030029,348.832703 239.129745,339.174957 238.911911,329.525726 
	C238.829697,325.883301 236.596481,323.837585 232.671600,324.185181 
	C225.783295,324.795166 218.892426,325.375977 212.198425,325.324860 
	C227.106644,310.890900 242.014877,296.456940 257.521454,281.443695 
	C263.814026,287.926971 269.970184,294.432343 276.306122,300.757660 
	C284.797028,309.234375 293.427063,317.571777 301.066833,325.992371 
	C294.679993,325.369934 288.269318,324.924835 281.913452,324.071716 
	C276.338989,323.323486 274.084747,324.888977 274.026978,330.541077 
	C273.936890,339.355042 274.161682,348.174835 273.927216,356.983490 
	C273.825897,360.789825 275.504425,362.324371 278.919800,363.023712 
	C288.870117,365.061096 298.776825,365.579407 308.921204,364.101562 
	C324.498169,361.832306 339.004395,357.051422 352.294617,348.618866 
	C354.958984,351.341492 357.615265,354.072144 360.289185,356.785339 
	C371.563080,368.224854 382.842255,379.659149 393.774933,391.700989 
	C386.636688,398.531342 387.276550,412.642303 395.734467,419.413391 
	C402.944458,425.185394 414.491425,425.739166 421.113007,419.316742 
	C430.677979,410.039368 440.160126,400.664459 449.373138,391.039764 
	C458.199097,381.819366 455.316956,366.441193 444.021484,360.500702 
	C435.619659,356.082001 428.180573,358.325287 420.904724,362.869324 
	C406.940521,348.912079 392.976318,334.954834 379.260437,320.361908 
	C393.211792,298.882751 398.945526,275.639771 394.140442,250.204346 
	C392.777100,242.987564 392.621002,243.009552 385.542542,243.001343 
	C377.892151,242.992493 370.241699,242.975525 362.591431,243.006760 
	C355.708221,243.034866 354.135406,245.131104 355.066925,251.861176 
	C355.945770,258.210907 356.353455,264.625824 356.325104,270.825500 
	C341.832214,256.235260 327.339294,241.645035 313.097229,226.406631 
	C317.648224,221.870667 322.206512,217.341995 326.749054,212.797592 
	C355.025543,184.509644 383.251831,156.171387 411.594421,127.949852 
	C423.719574,115.876434 436.309601,104.261177 448.191406,91.957794 
	C451.394379,88.641167 454.422180,83.668785 454.691559,79.282097 
	C455.527679,65.667297 455.124084,51.966331 454.868774,38.305012 
	C454.829071,36.181858 453.046997,34.091259 451.990234,31.171556 
	C450.002869,30.447529 448.023468,29.122673 446.026855,29.096161 
	C432.206085,28.912645 418.379578,29.138056 404.559631,28.926003 
	C399.561981,28.849316 395.782257,30.624067 392.382629,34.084713 
	C369.446472,57.432419 346.513031,80.783386 323.458923,104.014442 
	C302.108185,125.529030 280.609467,146.896805 259.168304,168.321609 
	C258.497559,168.991837 257.742737,169.577972 256.331055,170.811569 
	C255.152832,169.272247 254.269928,167.831665 253.117172,166.655533 
	C234.170776,147.325104 215.273270,127.945641 196.197113,108.743790 
	C171.080154,83.461334 145.884491,58.255653 120.501289,33.241604 
	C118.213997,30.987581 114.341957,29.281490 111.150635,29.187012 
	C96.673927,28.758438 82.176651,28.929316 67.688896,29.083178 
	C65.759369,29.103670 63.841904,30.260046 61.276314,31.284853 
	C60.517376,34.745148 59.186199,38.191910 59.104004,41.668205 
	C58.828674,53.311993 58.918697,64.967125 59.033306,76.616295 
	C59.091434,82.524391 60.892059,87.741356 65.406639,91.981560 
	C74.718948,100.727905 83.965584,109.551628 93.019409,118.564339 
	C120.620415,146.039993 148.058853,173.679077 175.688873,201.125381 
	C184.249527,209.629089 193.220383,217.719833 201.891022,226.669785 
	C195.554901,232.985580 189.178238,239.261337 182.892548,245.626938 
	C174.236801,254.392700 165.649826,263.226379 157.007950,271.103607 
	C157.679001,264.053162 158.374725,257.004913 159.012848,249.951492 
	C159.479019,244.798630 158.031219,243.097244 152.743530,243.032425 
	C143.928101,242.924362 135.110260,243.030655 126.293686,242.990311 
	C122.572563,242.973297 120.696754,244.552246 119.924171,248.382416 
	C117.573769,260.034882 117.773575,271.567505 119.905594,283.241821 
	C122.398163,296.890411 127.022766,309.578461 134.380524,321.296906 
	C121.175705,334.446289 107.962334,347.587158 94.787292,360.766296 
	C93.994026,361.559814 93.506416,362.658875 92.204391,363.299133 
	C87.538040,361.537079 82.870590,358.330109 78.205582,358.333649 
	C70.140320,358.339783 63.711086,362.948090 60.845348,370.774902 
	C58.011826,378.513702 59.370789,385.840240 65.394745,391.889435 
	C74.322693,400.854767 83.030037,410.065887 92.376755,418.573120 
	C95.421944,421.344757 100.041992,423.251831 104.170395,423.785461 
	C112.486671,424.860382 119.125290,420.716431 122.982246,413.563110 
	C127.229034,405.686859 125.537064,397.951782 120.200706,390.488647 
z"/>
<path fill="#D3D3D3" opacity="1.000000" stroke="none" 
	d="
M157.033401,272.030975 
	C165.649826,263.226379 174.236801,254.392700 182.892548,245.626938 
	C189.178238,239.261337 195.554901,232.985580 202.291107,226.313629 
	C210.206268,218.665298 217.750854,211.403168 225.225693,204.069977 
	C229.927689,199.457108 229.891495,199.398651 225.293854,194.797150 
	C172.293045,141.751556 119.287033,88.711159 66.293861,35.657925 
	C64.770935,34.133266 63.374348,32.482410 61.918854,30.890392 
	C63.841904,30.260046 65.759369,29.103670 67.688896,29.083178 
	C82.176651,28.929316 96.673927,28.758438 111.150635,29.187012 
	C114.341957,29.281490 118.213997,30.987581 120.501289,33.241604 
	C145.884491,58.255653 171.080154,83.461334 196.197113,108.743790 
	C215.273270,127.945641 234.170776,147.325104 253.117172,166.655533 
	C254.269928,167.831665 255.152832,169.272247 256.331055,170.811569 
	C257.742737,169.577972 258.497559,168.991837 259.168304,168.321609 
	C280.609467,146.896805 302.108185,125.529030 323.458923,104.014442 
	C346.513031,80.783386 369.446472,57.432419 392.382629,34.084713 
	C395.782257,30.624067 399.561981,28.849316 404.559631,28.926003 
	C418.379578,29.138056 432.206085,28.912645 446.026855,29.096161 
	C448.023468,29.122673 450.002869,30.447529 451.717041,31.706146 
	C449.982880,33.600060 448.477264,34.914738 447.067352,36.325069 
	C357.456421,125.962151 267.852325,215.606064 178.259659,305.261383 
	C177.092682,306.429199 176.079880,307.751068 174.677551,308.889893 
	C164.177750,298.607269 158.583328,286.272614 157.033401,272.030975 
z"/>
<path fill="#9B9B9B" opacity="1.000000" stroke="none" 
	d="
M174.995117,309.001007 
	C176.079880,307.751068 177.092682,306.429199 178.259659,305.261383 
	C267.852325,215.606064 357.456421,125.962151 447.067352,36.325069 
	C448.477264,34.914738 449.982880,33.600060 451.757263,32.113167 
	C453.046997,34.091259 454.829071,36.181858 454.868774,38.305012 
	C455.124084,51.966331 455.527679,65.667297 454.691559,79.282097 
	C454.422180,83.668785 451.394379,88.641167 448.191406,91.957794 
	C436.309601,104.261177 423.719574,115.876434 411.594421,127.949852 
	C383.251831,156.171387 355.025543,184.509644 326.749054,212.797592 
	C322.206512,217.341995 317.648224,221.870667 312.619690,226.703278 
	C310.788422,227.864273 309.236694,228.526398 308.113281,229.626083 
	C301.230225,236.363647 294.569672,243.333313 287.566498,249.941086 
	C284.598572,252.741440 284.997803,254.470901 287.704010,257.142487 
	C303.894867,273.126404 319.918579,289.279541 336.048676,305.325317 
	C337.177734,306.448456 338.712128,307.164215 339.909302,308.369812 
	C329.105743,318.655975 316.814331,325.069153 301.997345,325.968994 
	C293.427063,317.571777 284.797028,309.234375 276.306122,300.757660 
	C269.970184,294.432343 263.814026,287.926971 257.521454,281.443695 
	C242.014877,296.456940 227.106644,310.890900 211.678528,325.657471 
	C197.131592,324.525848 184.775864,319.504028 174.995117,309.001007 
z"/>
<path fill="#9B9B9B" opacity="1.000000" stroke="none" 
	d="
M61.597584,31.087624 
	C63.374348,32.482410 64.770935,34.133266 66.293861,35.657925 
	C119.287033,88.711159 172.293045,141.751556 225.293854,194.797150 
	C229.891495,199.398651 229.927689,199.457108 225.225693,204.069977 
	C217.750854,211.403168 210.206268,218.665298 202.347305,225.978561 
	C193.220383,217.719833 184.249527,209.629089 175.688873,201.125381 
	C148.058853,173.679077 120.620415,146.039993 93.019409,118.564339 
	C83.965584,109.551628 74.718948,100.727905 65.406639,91.981560 
	C60.892059,87.741356 59.091434,82.524391 59.033306,76.616295 
	C58.918697,64.967125 58.828674,53.311993 59.104004,41.668205 
	C59.186199,38.191910 60.517376,34.745148 61.597584,31.087624 
z"/>
<path fill="#533566" opacity="1.000000" stroke="none" 
	d="
M301.532104,325.980682 
	C316.814331,325.069153 329.105743,318.655975 340.177673,308.170624 
	C350.128357,297.271790 355.895386,285.190216 356.968445,271.012085 
	C356.353455,264.625824 355.945770,258.210907 355.066925,251.861176 
	C354.135406,245.131104 355.708221,243.034866 362.591431,243.006760 
	C370.241699,242.975525 377.892151,242.992493 385.542542,243.001343 
	C392.621002,243.009552 392.777100,242.987564 394.140442,250.204346 
	C398.945526,275.639771 393.211792,298.882751 378.835571,320.832703 
	C369.605865,330.211609 360.801025,339.119690 351.996216,348.027771 
	C339.004395,357.051422 324.498169,361.832306 308.921204,364.101562 
	C298.776825,365.579407 288.870117,365.061096 278.919800,363.023712 
	C275.504425,362.324371 273.825897,360.789825 273.927216,356.983490 
	C274.161682,348.174835 273.936890,339.355042 274.026978,330.541077 
	C274.084747,324.888977 276.338989,323.323486 281.913452,324.071716 
	C288.269318,324.924835 294.679993,325.369934 301.532104,325.980682 
z"/>
<path fill="#533566" opacity="1.000000" stroke="none" 
	d="
M174.677551,308.889893 
	C184.775864,319.504028 197.131592,324.525848 211.580627,325.979553 
	C218.892426,325.375977 225.783295,324.795166 232.671600,324.185181 
	C236.596481,323.837585 238.829697,325.883301 238.911911,329.525726 
	C239.129745,339.174957 239.030029,348.832703 238.962555,358.486420 
	C238.935745,362.318634 236.013367,363.444000 232.989258,363.937866 
	C217.871628,366.406860 202.875702,365.106598 188.439682,360.476074 
	C179.566833,357.630005 171.295410,352.908936 162.328690,348.626099 
	C152.008560,340.054535 142.686142,331.320282 134.970276,320.996765 
	C127.022766,309.578461 122.398163,296.890411 119.905594,283.241821 
	C117.773575,271.567505 117.573769,260.034882 119.924171,248.382416 
	C120.696754,244.552246 122.572563,242.973297 126.293686,242.990311 
	C135.110260,243.030655 143.928101,242.924362 152.743530,243.032425 
	C158.031219,243.097244 159.479019,244.798630 159.012848,249.951492 
	C158.374725,257.004913 157.679001,264.053162 157.020676,271.567291 
	C158.583328,286.272614 164.177750,298.607269 174.677551,308.889893 
z"/>
<path fill="#D2D2D2" opacity="1.000000" stroke="none" 
	d="
M356.646790,270.918793 
	C355.895386,285.190216 350.128357,297.271790 340.326385,307.870239 
	C338.712128,307.164215 337.177734,306.448456 336.048676,305.325317 
	C319.918579,289.279541 303.894867,273.126404 287.704010,257.142487 
	C284.997803,254.470901 284.598572,252.741440 287.566498,249.941086 
	C294.569672,243.333313 301.230225,236.363647 308.113281,229.626083 
	C309.236694,228.526398 310.788422,227.864273 312.494293,227.027344 
	C327.339294,241.645035 341.832214,256.235260 356.646790,270.918793 
z"/>
<path fill="#635994" opacity="1.000000" stroke="none" 
	d="
M421.123657,363.603882 
	C428.180573,358.325287 435.619659,356.082001 444.021484,360.500702 
	C455.316956,366.441193 458.199097,381.819366 449.373138,391.039764 
	C440.160126,400.664459 430.677979,410.039368 421.113007,419.316742 
	C414.491425,425.739166 402.944458,425.185394 395.734467,419.413391 
	C387.276550,412.642303 386.636688,398.531342 394.271606,391.307922 
	C403.553406,381.811218 412.338531,372.707550 421.123657,363.603882 
z"/>
<path fill="#635994" opacity="1.000000" stroke="none" 
	d="
M119.880707,391.095703 
	C125.537064,397.951782 127.229034,405.686859 122.982246,413.563110 
	C119.125290,420.716431 112.486671,424.860382 104.170395,423.785461 
	C100.041992,423.251831 95.421944,421.344757 92.376755,418.573120 
	C83.030037,410.065887 74.322693,400.854767 65.394745,391.889435 
	C59.370789,385.840240 58.011826,378.513702 60.845348,370.774902 
	C63.711086,362.948090 70.140320,358.339783 78.205582,358.333649 
	C82.870590,358.330109 87.538040,361.537079 92.582596,363.757874 
	C97.811295,369.410339 102.542358,374.722839 107.550491,379.759888 
	C111.483002,383.715027 115.757896,387.329742 119.880707,391.095703 
z"/>
<path fill="#321B41" opacity="1.000000" stroke="none" 
	d="
M421.014191,363.236603 
	C412.338531,372.707550 403.553406,381.811218 394.443909,391.005127 
	C382.842255,379.659149 371.563080,368.224854 360.289185,356.785339 
	C357.615265,354.072144 354.958984,351.341492 352.145416,348.323334 
	C360.801025,339.119690 369.605865,330.211609 378.711426,321.150574 
	C392.976318,334.954834 406.940521,348.912079 421.014191,363.236603 
z"/>
<path fill="#321B41" opacity="1.000000" stroke="none" 
	d="
M120.040710,390.792175 
	C115.757896,387.329742 111.483002,383.715027 107.550491,379.759888 
	C102.542358,374.722839 97.811295,369.410339 92.918686,363.916199 
	C93.506416,362.658875 93.994026,361.559814 94.787292,360.766296 
	C107.962334,347.587158 121.175705,334.446289 134.675400,321.146851 
	C142.686142,331.320282 152.008560,340.054535 161.978729,348.553009 
	C148.102921,362.751923 134.151810,376.620270 120.040710,390.792175 
z"/>
</svg>